<svg xmlns="http://www.w3.org/2000/svg" height="24" viewBox="0 -960 960 960" width="24">
  <path d="M480-80q-33 0-56.5-23.5T400-160q0-19 8.5-35.5T434-220q-13-21-20.5-44t-7.5-48q0-23 5.5-44.5T430-398q-21-15-35.5-37.5T380-490q0-11 2-21.5t6-20.5q-14-20-22-43t-8-49q0-66 47-113t113-47q66 0 113 47t47 113q0 26-8 49t-22 43q4 10 6 20.5t2 21.5q0 32-14.5 54.5T530-398q16 20 21.5 41.5T557-312q0 25-7.5 48T529-220q17 16 25.5 32.5T563-160q0 33-23.5 56.5T480-80Zm0-80q8 0 14-6t6-14q0-8-6-14t-14-6q-8 0-14 6t-6 14q0 8 6 14t14 6Zm-40-160h80q0-17-8.5-31.5T480-376q-23 10-31.5 24.5T440-320Zm-40-160h160q0-17-8.5-31.5T520-536h-80q-23 10-31.5 24.5T400-480Zm40-160h80q0-17-8.5-31.5T480-676q-23 10-31.5 24.5T440-640Z"/>
</svg>