<?xml version="1.0" standalone="no"?><!DOCTYPE svg PUBLIC "-//W3C//DTD SVG 1.1//EN" "http://www.w3.org/Graphics/SVG/1.1/DTD/svg11.dtd"><svg t="1770700972697" class="icon" viewBox="0 0 1024 1024" version="1.1" xmlns="http://www.w3.org/2000/svg" p-id="2639" xmlns:xlink="http://www.w3.org/1999/xlink" width="200" height="200"><path d="M610.123294 126.132706c6.746353-37.827765 47.104-61.921882 90.232471-53.790118 43.128471 8.071529 72.643765 45.417412 65.897411 83.245177-6.746353 37.827765-47.104 61.982118-90.23247 53.790117-43.128471-8.131765-72.643765-45.417412-65.897412-83.245176zM377.554824 112.64C385.686588 66.861176 434.537412 37.707294 486.701176 47.585882c52.163765 9.758118 87.823059 54.874353 79.691295 100.713412-8.131765 45.778824-56.982588 74.872471-109.146353 65.054118-52.163765-9.878588-87.823059-54.934588-79.691294-100.713412zM197.571765 310.512941C128.602353 297.441882 81.438118 237.808941 92.16 177.212235c10.782118-60.596706 75.414588-99.147294 144.444235-86.13647 68.969412 13.010824 116.254118 72.704 105.472 133.24047C331.294118 284.912941 266.601412 323.523765 197.571765 310.452706z m518.023529 628.555294c-94.509176 84.690824-205.402353 48.730353-238.351059-10.541176-32.828235-59.331765 34.936471-103.725176 26.744471-192.632471-8.192-88.907294-96.557176-120.651294-131.493647-146.070588 0 0-84.208941-59.211294-65.716706-169.261176 18.492235-110.110118 256.843294-203.233882 427.309176-57.22353 170.465882 146.070588 76.016941 491.098353-18.492235 575.728941z m204.016941-688.308706c-5.421176 30.298353-37.827765 49.633882-72.342588 43.128471-34.575059-6.565647-58.187294-36.382118-52.826353-66.740706 5.421176-30.298353 37.767529-49.633882 72.282353-43.12847 34.635294 6.505412 58.247529 36.382118 52.886588 66.740705z" fill="#1afa29" p-id="2640"></path></svg>